<?xml version="1.0" encoding="utf-8"?>
<!-- Generator: Adobe Illustrator 22.1.0, SVG Export Plug-In . SVG Version: 6.00 Build 0)  -->
<svg version="1.1" id="google_" xmlns="http://www.w3.org/2000/svg" xmlns:xlink="http://www.w3.org/1999/xlink" x="0px" y="0px"
	 viewBox="0 0 47.6 47" style="enable-background:new 0 0 47.6 47;" xml:space="preserve">
<style type="text/css">
	.st0{fill:#FFFFFF;fill-opacity:0;stroke:#F7F7F7;stroke-width:2;stroke-linejoin:round;}
	.st1{fill:#FFFFFF;}
</style>
<path id="Ellipse" class="st0" d="M23.8,1C36.2,1.1,46.2,11.4,46,23.8C45.9,36.2,35.7,46.2,23.2,46C10.9,45.8,1,35.8,1,23.5
	C1.1,11,11.3,0.9,23.8,1z"/>
<path id="google_2" class="st1" d="M34.9,18h-3v-3h-1v3h-3v1h3v3l1,0v-3h3L34.9,18L34.9,18z M24.2,25.4c-0.5-0.4-1.6-1.3-1.6-1.8
	c0-0.6,0.2-0.9,1.2-1.7c1-0.7,1.7-1.8,1.7-3.1c0.1-1.4-0.7-2.8-1.9-3.4h1.9l0.8-0.3c0,0-4-0.6-5.5-0.6c-2.7,0-5.3,2-5.3,4.3
	c0,2.4,2,4.3,4.3,4.3c0.1,0,0.2,0,0.3,0c0.2,0,0.4,0,0.6,0c-0.2,0.3-0.3,0.7-0.3,1.1c0,0.6,0.3,1.2,0.8,1.6c-0.3,0-0.7,0-1,0
	c-3.4,0-5.9,2.1-5.9,4.2c0,2.1,2.8,3.5,6.2,3.5c3.8,0,5.9-2.1,5.9-4.2C26.4,27.7,25.6,26.2,24.2,25.4L24.2,25.4L24.2,25.4z M21,22.5
	L21,22.5c-1.6,0-3-1.7-3.3-3.7s0.8-3.5,2.3-3.5s3,1.6,3.3,3.6S22.5,22.5,21,22.5z M20.4,32.6L20.4,32.6c-2.3,0-4-1.4-4-3.1
	c0-1.7,2.1-3.1,4.4-3.1c0.5,0,1,0.1,1.5,0.2c1.3,0.9,2.2,1.3,2.4,2.3c0,0.2,0.1,0.4,0.1,0.6C24.8,31.2,23.6,32.6,20.4,32.6z"/>
</svg>
