<?xml version="1.0" encoding="utf-8"?>
<!-- Generator: Adobe Illustrator 22.1.0, SVG Export Plug-In . SVG Version: 6.00 Build 0)  -->
<svg version="1.1" id="Layer_1" xmlns="http://www.w3.org/2000/svg" xmlns:xlink="http://www.w3.org/1999/xlink" x="0px" y="0px"
	 viewBox="0 0 20.7 19" style="enable-background:new 0 0 20.7 19;" xml:space="preserve">
<style type="text/css">
	.st0{fill:#FFFFFF;}
</style>
<path class="st0" d="M20.7,3.5h-3l0-3h-1v3h-3v1h3v3l1,0l0-3h3V3.5z"/>
<path class="st0" d="M10,10.9c-0.5-0.4-1.6-1.3-1.6-1.8c0-0.6,0.2-0.9,1.2-1.7c1-0.8,1.7-1.8,1.7-3.1c0-1.5-0.7-2.9-1.9-3.4h1.9
	l0.8-0.3c0,0-4-0.6-5.5-0.6C3.9,0,1.3,2,1.3,4.3c0,2.4,1.8,4.3,4.6,4.3c0.2,0,0.4,0,0.6,0C6.3,8.9,6.2,9.3,6.2,9.7
	c0,0.7,0.4,1.2,0.8,1.6c-0.3,0-0.7,0-1,0c-3.4,0-5.9,2.1-5.9,4.2C0,17.7,2.8,19,6.2,19c3.8,0,5.9-2.1,5.9-4.2
	C12.1,13.1,11.6,12,10,10.9L10,10.9z M6.8,8L6.8,8c-1.6,0-3-1.7-3.3-3.7c-0.3-2,0.8-3.5,2.3-3.5c1.6,0,3,1.6,3.3,3.6
	C9.4,6.5,8.3,8,6.8,8z M6.2,18.1L6.2,18.1c-2.3,0-4-1.4-4-3.1c0-1.7,2.1-3.1,4.4-3.1c0.5,0,1,0.1,1.5,0.2c1.3,0.9,2.2,1.3,2.4,2.3
	c0,0.2,0.1,0.4,0.1,0.6C10.6,16.7,9.4,18.1,6.2,18.1z"/>
</svg>
