<?xml version="1.0" encoding="utf-8"?>
<!-- Generator: Adobe Illustrator 22.1.0, SVG Export Plug-In . SVG Version: 6.00 Build 0)  -->
<svg version="1.1" id="linkedin" xmlns="http://www.w3.org/2000/svg" xmlns:xlink="http://www.w3.org/1999/xlink" x="0px" y="0px"
	 viewBox="0 0 47.6 47" style="enable-background:new 0 0 47.6 47;" xml:space="preserve">
<style type="text/css">
	.st0{fill:#FFFFFF;fill-opacity:0;stroke:#F7F7F7;stroke-width:2;stroke-linejoin:round;}
	.st1{fill:#FFFFFF;}
</style>
<path id="Ellipse" class="st0" d="M23.8,1C36.2,1.1,46.2,11.4,46,23.8C45.9,36.2,35.7,46.2,23.2,46C10.9,45.8,1,35.8,1,23.5
	C1.1,11,11.3,0.9,23.8,1z"/>
<path id="linkedin-2" class="st1" d="M29.3,32v-6.9c0-1.6-0.8-2.7-2.2-2.7c-0.9,0-1.8,0.6-2.1,1.5c-0.1,0.3-0.1,0.6,0,0.9V32h-3.7
	v-8.6c0-1.2-0.2-2.5-0.7-3.6h3.7v1.4l0.2,0c0.9-1.3,2.4-2.1,4-2c2.6,0,4.6,1.7,4.6,5.5V32H29.3z M14.7,19.8h4.4V32h-4.4V19.8z
	 M16.8,17.9c-1.1-0.1-1.9-1.1-1.8-2.2c0.1-1.1,1.1-1.9,2.2-1.8c1,0.1,1.8,0.9,1.8,2c0,1.1-0.9,2-2,2C16.9,17.9,16.9,17.9,16.8,17.9z
	"/>
</svg>
