<?xml version="1.0" encoding="utf-8"?>
<!-- Generator: Adobe Illustrator 22.1.0, SVG Export Plug-In . SVG Version: 6.00 Build 0)  -->
<svg version="1.1" id="Layer_1" xmlns="http://www.w3.org/2000/svg" xmlns:xlink="http://www.w3.org/1999/xlink" x="0px" y="0px"
	 viewBox="0 0 18.2 18" style="enable-background:new 0 0 18.2 18;" xml:space="preserve">
<style type="text/css">
	.st0{fill-rule:evenodd;clip-rule:evenodd;fill:#FFFFFF;}
</style>
<path class="st0" d="M14.6,18v-6.9c0-1.6-0.8-2.7-2.2-2.7c-1.1,0-1.8,0.8-2.1,1.5c-0.1,0.3,0,0.6,0,0.9V18H6.6V9.4
	c0-1.6-0.5-3.3-0.7-3.6h3.6v1.4l0.2,0c0.5-0.9,1.8-2,4-2c2.6,0,4.6,1.7,4.6,5.5V18H14.6z M0,5.8h4.4V18L0,18V5.8z M2.1,3.9
	C0.9,3.9,0,3.1,0,2c0-1.1,0.8-2,2.1-2c1.3,0,2.1,0.9,2.1,2C4.3,3.1,3.5,3.9,2.1,3.9z"/>
</svg>
