<?xml version="1.0" encoding="utf-8"?>
<!-- Generator: Adobe Illustrator 22.1.0, SVG Export Plug-In . SVG Version: 6.00 Build 0)  -->
<svg version="1.1" id="Layer_1" xmlns="http://www.w3.org/2000/svg" xmlns:xlink="http://www.w3.org/1999/xlink" x="0px" y="0px"
	 viewBox="0 0 21.1 16.8" style="enable-background:new 0 0 21.1 16.8;" xml:space="preserve">
<style type="text/css">
	.st0{fill:#FFFFFF;}
</style>
<path class="st0" d="M21.1,2c-0.8,0.3-1.6,0.6-2.5,0.7c0.9-0.5,1.6-1.4,1.9-2.3c-0.8,0.5-1.8,0.8-2.7,1C17,0.5,15.8,0,14.6,0
	c-2.4,0-4.3,1.9-4.3,4.2c0,0.3,0,0.7,0.1,1C6.8,5,3.6,3.3,1.5,0.8C1.1,1.4,0.9,2.1,0.9,2.9c0,1.5,0.8,2.8,1.9,3.5
	c-0.7,0-1.4-0.2-2-0.5c0,0,0,0,0,0.1c0,2.1,1.5,3.8,3.5,4.2c-0.4,0.1-0.7,0.1-1.1,0.1c-0.3,0-0.5,0-0.8-0.1c0.5,1.7,2.1,2.9,4,2.9
	C4.9,14.3,3.1,15,1,15c-0.3,0-0.7,0-1-0.1c1.9,1.2,4.2,1.9,6.6,1.9c8,0,12.3-6.5,12.3-12.1c0-0.2,0-0.4,0-0.5
	C19.8,3.6,20.5,2.8,21.1,2L21.1,2z"/>
</svg>
