<?xml version="1.0" encoding="utf-8"?>
<!-- Generator: Adobe Illustrator 22.1.0, SVG Export Plug-In . SVG Version: 6.00 Build 0)  -->
<svg version="1.1" id="twitter" xmlns="http://www.w3.org/2000/svg" xmlns:xlink="http://www.w3.org/1999/xlink" x="0px" y="0px"
	 viewBox="0 0 47.6 47" style="enable-background:new 0 0 47.6 47;" xml:space="preserve">
<style type="text/css">
	.st0{fill:#81E0FE;fill-opacity:0;stroke:#F7F7F7;stroke-width:2;stroke-linejoin:round;}
	.st1{fill:#FFFFFF;}
</style>
<path id="Ellipse" class="st0" d="M23.8,1C36.2,1.1,46.2,11.4,46,23.8C45.9,36.2,35.7,46.2,23.2,46C10.9,45.8,1,35.8,1,23.5
	C1.1,11,11.3,0.9,23.8,1z"/>
<path id="twitter-2" class="st1" d="M34.2,17.5c-0.8,0.3-1.6,0.6-2.5,0.7c0.9-0.5,1.6-1.4,1.9-2.3c-0.9,0.5-1.8,0.8-2.7,1
	c-0.8-0.9-2-1.3-3.2-1.3c-2.4,0-4.3,1.9-4.3,4.2c0,0,0,0,0,0c0,0.3,0,0.7,0.1,1c-3.5-0.2-6.7-1.8-8.9-4.4c-0.4,0.6-0.6,1.4-0.6,2.1
	c0,1.4,0.7,2.8,1.9,3.5c-0.7,0-1.4-0.2-2-0.5v0.1c0,2,1.5,3.8,3.5,4.2c-0.4,0.1-0.8,0.1-1.1,0.1c-0.3,0-0.5,0-0.8-0.1
	c0.6,1.7,2.2,2.9,4,2.9c-1.5,1.2-3.4,1.8-5.4,1.8c-0.3,0-0.7,0-1-0.1c2,1.2,4.3,1.9,6.6,1.9c6.7,0.1,12.2-5.2,12.3-11.9
	c0-0.1,0-0.1,0-0.2c0-0.2,0-0.4,0-0.5C32.9,19.1,33.6,18.4,34.2,17.5L34.2,17.5L34.2,17.5z"/>
</svg>
