<?xml version="1.0" encoding="utf-8"?>
<!-- Generator: Adobe Illustrator 22.1.0, SVG Export Plug-In . SVG Version: 6.00 Build 0)  -->
<svg version="1.1" id="youtube" xmlns="http://www.w3.org/2000/svg" xmlns:xlink="http://www.w3.org/1999/xlink" x="0px" y="0px"
	 viewBox="0 0 47.6 47" style="enable-background:new 0 0 47.6 47;" xml:space="preserve">
<style type="text/css">
	.st0{fill:#FFFFFF;fill-opacity:0;stroke:#F7F7F7;stroke-width:2;stroke-linejoin:round;}
	.st1{fill:#FFFFFF;}
</style>
<path id="Ellipse" class="st0" d="M23.8,1C36.2,1.2,46.2,11.4,46,23.8C45.9,36.2,35.6,46.2,23.2,46C10.9,45.8,1,35.8,1,23.5
	C1.1,11,11.3,0.9,23.8,1C23.8,1,23.8,1,23.8,1z"/>
<path id="youtube-2" class="st1" d="M33.2,32.1c0,1.5-1.3,2.8-2.8,2.8C28.2,35,25.9,35,23.5,35c-2.3,0-4.6,0-6.9-0.1
	c-1.5,0-2.8-1.2-2.8-2.8c-0.1-1.2-0.1-2.4-0.1-3.6c0-1.2,0-2.4,0.1-3.6c0-1.5,1.3-2.8,2.8-2.8c0,0,0,0,0,0c2.2-0.1,4.5-0.1,6.9-0.1
	c2.3,0,4.6,0,6.9,0.1c1.5,0,2.8,1.2,2.8,2.8c0,0,0,0,0,0c0.1,1.2,0.1,2.4,0.1,3.6C33.4,29.7,33.3,30.9,33.2,32.1z M19.3,24h-4.1v1.2
	h1.4v7.3h1.3v-7.3h1.4V24L19.3,24z M22.7,26.2h-1.2V31c-0.1,0.1-0.2,0.2-0.4,0.3c-0.1,0.1-0.2,0.1-0.3,0.1c-0.1,0-0.2,0-0.3-0.1
	c-0.1-0.1-0.1-0.2-0.1-0.3v-4.9h-1.2v5.3c0,0.3,0.1,0.6,0.2,0.8c0.1,0.2,0.4,0.3,0.6,0.3c0.2,0,0.5-0.1,0.7-0.2
	c0.3-0.2,0.5-0.4,0.7-0.6v0.7h1.2V26.2L22.7,26.2z M27.3,27.7c0-0.4-0.1-0.8-0.3-1.2c-0.2-0.3-0.5-0.4-0.9-0.4
	c-0.2,0-0.4,0.1-0.6,0.2c-0.2,0.1-0.4,0.3-0.5,0.4V24h-1.2v8.6h1.2v-0.5c0.1,0.2,0.3,0.3,0.5,0.4c0.2,0.1,0.4,0.1,0.6,0.1
	c0.3,0,0.6-0.1,0.8-0.4c0.2-0.3,0.3-0.7,0.3-1V27.7L27.3,27.7z M31.7,30.3h-1.2v0.4c0,0.2,0,0.5-0.1,0.7c-0.1,0.1-0.3,0.2-0.4,0.2
	c-0.2,0-0.3-0.1-0.4-0.2c-0.1-0.2-0.1-0.5-0.1-0.7v-1.2h2.3v-1.6c0-0.5-0.1-1-0.4-1.4C31,26.2,30.5,26,30,26c-0.5,0-1,0.2-1.3,0.5
	c-0.3,0.4-0.5,0.8-0.5,1.3v2.8c0,0.5,0.1,1,0.5,1.4c0.3,0.4,0.8,0.5,1.3,0.5c0.5,0,1-0.1,1.3-0.5c0.3-0.4,0.5-0.9,0.4-1.5L31.7,30.3
	L31.7,30.3z M29.4,27.9c0-0.2,0-0.4,0.1-0.6c0.1-0.1,0.3-0.2,0.4-0.2c0.2,0,0.3,0.1,0.4,0.2c0.1,0.2,0.1,0.4,0.1,0.6v0.6h-1.1V27.9
	L29.4,27.9z M25.7,31.6c-0.1,0-0.2,0-0.3-0.1c-0.1-0.1-0.2-0.1-0.3-0.2v-3.9c0.1-0.1,0.1-0.1,0.2-0.2c0.1,0,0.2-0.1,0.3-0.1
	c0.1,0,0.3,0.1,0.4,0.2c0.1,0.1,0.1,0.3,0.1,0.5v3.3c0,0.2,0,0.3-0.1,0.4C25.9,31.6,25.8,31.6,25.7,31.6L25.7,31.6z M28.4,20.1
	c-0.2,0.2-0.4,0.4-0.7,0.6c-0.2,0.1-0.4,0.2-0.7,0.2c-0.2,0-0.5-0.1-0.6-0.3c-0.2-0.3-0.2-0.6-0.2-0.8v-5.3h1.2v4.9
	c0,0.1,0,0.2,0.1,0.3c0.1,0.1,0.1,0.1,0.2,0.1c0.1,0,0.2-0.1,0.3-0.1c0.1-0.1,0.3-0.2,0.4-0.3v-4.8h1.2v6.3h-1.2V20.1L28.4,20.1z
	 M23.5,21c-0.5,0-0.9-0.2-1.3-0.5c-0.3-0.3-0.5-0.8-0.5-1.3v-3.3c0-0.4,0.2-0.9,0.5-1.2c0.4-0.3,0.8-0.5,1.3-0.4
	c0.4,0,0.9,0.1,1.2,0.5c0.3,0.3,0.5,0.7,0.5,1.2v3.3c0.1,0.9-0.6,1.7-1.5,1.7C23.7,21,23.6,21,23.5,21L23.5,21z M24,15.9
	c0-0.1-0.1-0.3-0.2-0.3c-0.1-0.1-0.2-0.1-0.4-0.1c-0.1,0-0.3,0-0.3,0.1C23,15.6,23,15.7,23,15.9v3.5c0,0.1,0,0.3,0.1,0.4
	c0.1,0.1,0.2,0.2,0.4,0.1c0.1,0,0.3,0,0.4-0.1c0.1-0.1,0.1-0.3,0.1-0.4V15.9L24,15.9z M20.3,20.8h-1.3v-3.4l-1.6-5.2h1.3l0.9,3.4
	h0.1l0.8-3.4h1.4l-1.6,5L20.3,20.8L20.3,20.8z"/>
</svg>
