<?xml version="1.0" encoding="utf-8"?>
<!-- Generator: Adobe Illustrator 22.1.0, SVG Export Plug-In . SVG Version: 6.00 Build 0)  -->
<svg version="1.1" id="Layer_1" xmlns="http://www.w3.org/2000/svg" xmlns:xlink="http://www.w3.org/1999/xlink" x="0px" y="0px"
	 viewBox="0 0 19.7 22.8" style="enable-background:new 0 0 19.7 22.8;" xml:space="preserve">
<style type="text/css">
	.st0{fill-rule:evenodd;clip-rule:evenodd;fill:#FFFFFF;}
</style>
<path class="st0" d="M19.6,19.9c0,1.5-1.3,2.8-2.8,2.8c-2.2,0.1-4.5,0.1-6.9,0.1c-2.3,0-4.6,0-6.9-0.1c-1.6,0-2.8-1.2-2.8-2.8
	C0,18.7,0,17.5,0,16.2c0-1.2,0-2.4,0.1-3.6c0-1.5,1.3-2.8,2.8-2.8c2.2-0.1,4.5-0.1,6.9-0.1c2.3,0,4.6,0,6.9,0.1
	c1.6,0,2.8,1.2,2.8,2.8c0.1,1.2,0.1,2.4,0.1,3.6C19.7,17.5,19.7,18.7,19.6,19.9z M5.7,11.7H1.5V13h1.4v7.3h1.3V13h1.4V11.7z M9,14
	H7.9v4.8c-0.1,0.1-0.2,0.3-0.4,0.3c-0.1,0.1-0.2,0.1-0.3,0.1c-0.1,0-0.2,0-0.2-0.1c0-0.1-0.1-0.2-0.1-0.3V14H5.6v5.3
	c0,0.4,0.1,0.7,0.2,0.8c0.1,0.2,0.3,0.3,0.6,0.3c0.2,0,0.5-0.1,0.7-0.2c0.2-0.1,0.5-0.3,0.7-0.6v0.7H9V14z M13.6,15.5
	c0-0.5-0.1-0.9-0.3-1.2c-0.2-0.3-0.5-0.4-0.9-0.4c-0.2,0-0.4,0-0.5,0.2c-0.2,0.1-0.4,0.2-0.5,0.4v-2.8h-1.2v8.6h1.2v-0.5
	c0.2,0.2,0.3,0.3,0.5,0.4c0.2,0.1,0.4,0.1,0.6,0.1c0.4,0,0.6-0.1,0.8-0.4c0.2-0.2,0.3-0.6,0.3-1V15.5z M18.1,18.1h-1.2v0.4
	c0,0.4,0,0.6-0.1,0.7c-0.1,0.1-0.2,0.2-0.4,0.2c-0.2,0-0.3-0.1-0.4-0.2c-0.1-0.1-0.1-0.4-0.1-0.7v-1.2h2.3v-1.6
	c0-0.6-0.1-1.1-0.4-1.4c-0.3-0.3-0.7-0.5-1.3-0.5c-0.5,0-1,0.2-1.3,0.5c-0.3,0.3-0.5,0.8-0.5,1.3v2.8c0,0.6,0.2,1.1,0.5,1.4
	c0.3,0.3,0.7,0.5,1.3,0.5c0.6,0,1-0.2,1.3-0.5c0.3-0.3,0.4-0.8,0.4-1.5V18.1z M15.8,15.7c0-0.3,0-0.5,0.1-0.6
	c0.1-0.1,0.2-0.2,0.4-0.2c0.2,0,0.3,0.1,0.4,0.2c0.1,0.1,0.1,0.3,0.1,0.6v0.6h-1.1V15.7z M12,19.4c-0.1,0-0.2,0-0.3-0.1
	c-0.1,0-0.2-0.1-0.3-0.2v-3.9c0.1-0.1,0.2-0.2,0.2-0.2c0.1,0,0.2-0.1,0.3-0.1c0.2,0,0.3,0.1,0.4,0.2c0.1,0.1,0.1,0.3,0.1,0.5v3.3
	c0,0.2,0,0.3-0.1,0.4C12.2,19.4,12.1,19.4,12,19.4z M14.8,7.9c-0.2,0.3-0.4,0.5-0.7,0.6c-0.2,0.1-0.5,0.2-0.7,0.2
	c-0.3,0-0.5-0.1-0.6-0.3c-0.1-0.2-0.2-0.5-0.2-0.8V2.3h1.2v4.9c0,0.2,0,0.3,0.1,0.3c0,0.1,0.1,0.1,0.2,0.1c0.1,0,0.2,0,0.3-0.1
	c0.1-0.1,0.3-0.2,0.4-0.3V2.3H16v6.3h-1.2V7.9z M9.8,8.7c-0.5,0-0.9-0.2-1.3-0.5C8.2,8,8.1,7.5,8.1,7V3.7c0-0.5,0.2-0.9,0.5-1.2
	c0.3-0.3,0.8-0.4,1.3-0.4c0.5,0,0.9,0.2,1.2,0.5c0.3,0.3,0.5,0.7,0.5,1.2V7c0,0.5-0.2,1-0.5,1.3C10.8,8.6,10.3,8.7,9.8,8.7z
	 M10.3,3.7c0-0.1,0-0.2-0.1-0.3C10.1,3.2,10,3.2,9.8,3.2c-0.1,0-0.3,0-0.4,0.1C9.3,3.4,9.3,3.5,9.3,3.7v3.5c0,0.2,0,0.3,0.1,0.4
	c0.1,0.1,0.2,0.1,0.4,0.1c0.2,0,0.3,0,0.4-0.1c0.1-0.1,0.1-0.2,0.1-0.4V3.7z M6.6,8.6H5.2V5.2L3.6,0H5l0.9,3.4h0.1L6.8,0h1.4L6.6,5
	V8.6z"/>
</svg>
